<svg width="64" height="64" viewBox="0 0 64 64" fill="none" xmlns="http://www.w3.org/2000/svg">
  <rect width="64" height="64" rx="16" fill="#0B1220"/>
  <rect x="12" y="12" width="40" height="40" rx="10" fill="#2563EB"/>
  <path d="M24 23.5C24 22.12 25.12 21 26.5 21H37.5C38.88 21 40 22.12 40 23.5V40.5C40 41.88 38.88 43 37.5 43H26.5C25.12 43 24 41.88 24 40.5V23.5Z" fill="white"/>
  <path d="M29 18.5C29 17.67 29.67 17 30.5 17C31.33 17 32 17.67 32 18.5V21H29V18.5Z" fill="#BFDBFE"/>
  <path d="M33 18.5C33 17.67 33.67 17 34.5 17C35.33 17 36 17.67 36 18.5V21H33V18.5Z" fill="#BFDBFE"/>
  <path d="M28 30.5L30.7 33.2L36 27.9" stroke="#2563EB" stroke-width="2.7" stroke-linecap="round" stroke-linejoin="round"/>
</svg>
